ModelForces
version=1
nRows=4
nColumns=157
inDegrees=no

This file contains the forces exerted on a model during a simulation.

A force is a generalized force, meaning that it can be either a force (N) or a torque (Nm).

Units are S.I. units (second, meters, Newtons, ...)
Angles are in degrees.

endheader
time	glut_med1_r	glut_med2_r	glut_med3_r	glut_min1_r	glut_min2_r	glut_min3_r	semimem_r	semiten_r	bifemlh_r	bifemsh_r	sar_r	add_long_r	add_brev_r	add_mag1_r	add_mag2_r	add_mag3_r	tfl_r	pect_r	grac_r	glut_max1_r	glut_max2_r	glut_max3_r	iliacus_r	psoas_r	quad_fem_r	gem_r	peri_r	rect_fem_r	vas_med_r	vas_int_r	vas_lat_r	med_gas_r	lat_gas_r	soleus_r	tib_post_r	flex_dig_r	flex_hal_r	tib_ant_r	per_brev_r	per_long_r	per_tert_r	ext_dig_r	ext_hal_r	glut_med1_l	glut_med2_l	glut_med3_l	glut_min1_l	glut_min2_l	glut_min3_l	semimem_l	semiten_l	bifemlh_l	bifemsh_l	sar_l	add_long_l	add_brev_l	add_mag1_l	add_mag2_l	add_mag3_l	tfl_l	pect_l	grac_l	glut_max1_l	glut_max2_l	glut_max3_l	iliacus_l	psoas_l	quad_fem_l	gem_l	peri_l	rect_fem_l	vas_med_l	vas_int_l	vas_lat_l	med_gas_l	lat_gas_l	soleus_l	tib_post_l	flex_dig_l	flex_hal_l	tib_ant_l	per_brev_l	per_long_l	per_tert_l	ext_dig_l	ext_hal_l	ercspn_r	ercspn_l	intobl_r	intobl_l	extobl_r	extobl_l	femur_lat_meniscii_r.femur_lat_r.force.X	femur_lat_meniscii_r.femur_lat_r.force.Y	femur_lat_meniscii_r.femur_lat_r.force.Z	femur_lat_meniscii_r.femur_lat_r.torque.X	femur_lat_meniscii_r.femur_lat_r.torque.Y	femur_lat_meniscii_r.femur_lat_r.torque.Z	femur_lat_meniscii_r.meniscus_lat_r.force.X	femur_lat_meniscii_r.meniscus_lat_r.force.Y	femur_lat_meniscii_r.meniscus_lat_r.force.Z	femur_lat_meniscii_r.meniscus_lat_r.torque.X	femur_lat_meniscii_r.meniscus_lat_r.torque.Y	femur_lat_meniscii_r.meniscus_lat_r.torque.Z	femur_med_meniscii_r.femur_med_r.force.X	femur_med_meniscii_r.femur_med_r.force.Y	femur_med_meniscii_r.femur_med_r.force.Z	femur_med_meniscii_r.femur_med_r.torque.X	femur_med_meniscii_r.femur_med_r.torque.Y	femur_med_meniscii_r.femur_med_r.torque.Z	femur_med_meniscii_r.meniscus_med_r.force.X	femur_med_meniscii_r.meniscus_med_r.force.Y	femur_med_meniscii_r.meniscus_med_r.force.Z	femur_med_meniscii_r.meniscus_med_r.torque.X	femur_med_meniscii_r.meniscus_med_r.torque.Y	femur_med_meniscii_r.meniscus_med_r.torque.Z	femur_med_tibia_r.tibia_upper_r.force.X	femur_med_tibia_r.tibia_upper_r.force.Y	femur_med_tibia_r.tibia_upper_r.force.Z	femur_med_tibia_r.tibia_upper_r.torque.X	femur_med_tibia_r.tibia_upper_r.torque.Y	femur_med_tibia_r.tibia_upper_r.torque.Z	femur_med_tibia_r.femur_med_r.force.X	femur_med_tibia_r.femur_med_r.force.Y	femur_med_tibia_r.femur_med_r.force.Z	femur_med_tibia_r.femur_med_r.torque.X	femur_med_tibia_r.femur_med_r.torque.Y	femur_med_tibia_r.femur_med_r.torque.Z	femur_lat_tibia_r.tibia_upper_r.force.X	femur_lat_tibia_r.tibia_upper_r.force.Y	femur_lat_tibia_r.tibia_upper_r.force.Z	femur_lat_tibia_r.tibia_upper_r.torque.X	femur_lat_tibia_r.tibia_upper_r.torque.Y	femur_lat_tibia_r.tibia_upper_r.torque.Z	femur_lat_tibia_r.femur_lat_r.force.X	femur_lat_tibia_r.femur_lat_r.force.Y	femur_lat_tibia_r.femur_lat_r.force.Z	femur_lat_tibia_r.femur_lat_r.torque.X	femur_lat_tibia_r.femur_lat_r.torque.Y	femur_lat_tibia_r.femur_lat_r.torque.Z	aACL_R	pACL_R	aPCL_R	pPCL_R	aMCL_R	mMCL_R	pMCL_R	aLCL_R	mLCL_R	pLCL_R	ground_prescribedForce_fx	ground_prescribedForce_fy	ground_prescribedForce_fz	ground_prescribedForce_px	ground_prescribedForce_py	ground_prescribedForce_pz
      0.06200000	      0.00000000	     12.29742135	      6.52841278	      7.33823841	      8.31150792	      0.00000000	      0.00000000	    231.77454226	    333.10715080	    436.90344610	    135.00484009	     16.31449214	     11.32554963	      0.00000000	      0.00000000	     11.37697598	      4.82289138	      0.00000000	    118.77831820	      2.97187115	     15.37258528	     12.05317661	     42.42969593	     35.46253138	      0.00000000	      5.89909820	      0.00000000	     50.16898603	      0.00000000	      0.00000000	      0.00000000	     51.72777748	     33.79932336	     53.66807997	     41.50907566	      3.36869329	      2.71319134	      0.00000000	     17.85459222	     43.12726588	      7.40525993	      8.19257854	      2.11045646	      0.00000000	     12.29742135	      6.52841278	      7.33823841	      8.31150792	      0.00000000	      0.00000000	     12.45777286	      0.00000000	     20.36453203	      4.17536406	     16.31449214	     11.32554963	      0.00000000	      0.00000000	     11.37697598	      8.51493239	      0.00000000	      4.35571878	      2.97187115	     15.37258528	     12.05317661	     42.42969593	     35.46253138	      0.00000000	      5.89909820	      0.00000000	     28.08314629	      0.00000000	      0.00000000	      0.00000000	      0.00000000	      0.00000000	      0.00000000	     59.46085428	      8.98581536	      6.92518648	      0.00000000	      9.44045157	     21.12616534	      5.23389839	      6.14243319	      1.77996994	     69.16825094	     69.16825094	     26.75498307	     26.75498307	     43.19106925	     43.19106925	    111.22020186	    273.24136676	     30.54750192	    -19.39979860	      2.73146380	     46.54578925	   -111.22020186	   -273.24136676	    -30.54750192	      8.50593249	     -3.18093808	     -2.86192411	     -7.53812400	     62.52354677	     13.06013356	     -4.06093470	      0.00908468	     -2.44814574	      7.53812400	    -62.52354677	    -13.06013356	     -0.75696412	     -0.03852438	     -0.19173874	    -40.48357789	   -608.04418301	    121.56943814	    -12.99110183	     -0.33182858	     -5.95238483	     40.48357789	    608.04418301	   -121.56943814	     61.35347218	      0.69355149	     23.86663478	    -40.66603105	   -373.21061085	    -97.08826610	     13.13650126	     -1.05981328	     -1.43350982	     40.66603105	    373.21061085	     97.08826610	    -49.22301327	      0.55530639	     18.48791413	     32.48131722	     19.82722286	      0.00000000	      0.00000000	      0.00000000	    -16.71832285	    -42.45355345	      0.00000000	      0.00000000	      0.00000000	      0.00000000	      0.00000000	      0.00000000	      0.00000000	      0.00000000	      0.00000000
      0.06300000	      0.00000000	     12.94057204	      8.59073969	      7.27505499	      8.24387816	      0.00000000	      0.00000000	    230.47279010	    330.41693138	    435.48245370	    135.02014461	     16.16804160	     11.22859594	      0.00000000	      0.00000000	     11.33888801	      4.85375733	      0.00000000	    118.47191616	      4.65178009	     15.31472670	     11.95732013	     42.15423865	     35.14942421	      0.00000000	      5.87214066	      0.00000000	     49.84596451	      0.00000000	      0.00000000	      0.00000000	     56.67229614	     36.38178022	     44.97694390	     40.81067363	      3.72605342	      3.04393026	      0.00000000	     17.14802688	     41.87146697	      7.79717914	      8.59467228	      2.25157886	      0.00000000	     12.94057204	      8.59073969	      7.27505499	      8.24387816	      0.00000000	      0.00000000	     12.34279468	      0.00000000	     20.18545590	      4.13947540	     16.16804160	     11.22859594	      0.00000000	      0.00000000	     11.33888801	      8.48840693	      0.00000000	      4.31773878	      4.65178009	     15.31472670	     11.95732013	     42.15423865	     35.14942421	      0.00000000	      5.87214066	      0.00000000	     28.10046999	      0.00000000	      0.00000000	      0.00000000	      0.00000000	      0.00000000	      3.86910940	     59.53790752	      9.22587557	      7.21440201	      0.00000000	      9.54507090	     21.25276031	      5.20725508	      6.13665819	      1.77720063	     68.57025484	     68.57025484	     26.51860089	     26.51860089	     42.96123298	     42.96123298	    107.10145852	    267.35284231	     29.41568797	    -18.78823259	      2.62631858	     44.80901865	   -107.10145852	   -267.35284231	    -29.41568797	      8.30642930	     -3.06085273	     -2.69576394	     -7.42502123	     61.18596636	     13.22501598	     -4.15726182	      0.00358915	     -2.43513330	      7.42502123	    -61.18596636	    -13.22501598	     -0.72848156	     -0.03581549	     -0.15881054	    -47.95770464	   -618.31761192	    121.33386034	    -13.21928127	     -0.17589042	     -6.06056005	     47.95770464	    618.31761192	   -121.33386034	     61.50660940	      0.53074027	     26.95463960	    -40.74268418	   -365.77016096	    -94.71705807	     12.85200533	     -1.08072805	     -1.35956531	     40.74268418	    365.77016096	     94.71705807	    -48.05615140	      0.57423724	     18.45860391	     31.88859585	     18.65258698	      0.00000000	      0.00000000	      0.00000000	    -16.80356985	    -43.15028274	      0.00000000	      0.00000000	      0.00000000	      0.00000000	      0.00000000	      0.00000000	      0.00000000	      0.00000000	      0.00000000
      0.06400000	      0.00000000	     13.40885412	     10.12828756	      7.21272233	      8.17676459	      1.29434473	      0.00000000	    229.24335010	    327.50950842	    434.12656603	    135.03878169	     16.02369625	     11.13301119	      0.00000000	      0.00000000	     11.29777835	      4.88725148	      0.00000000	    118.18983694	      5.80303672	     15.24909955	     11.86143437	     41.88284583	     34.84099007	      0.00000000	      5.84439263	      0.00000000	     49.53696174	      0.00000000	      0.00000000	      0.00000000	     60.66833887	     38.38205629	     35.88979938	     39.99327355	      4.10683992	      3.38326017	      0.00000000	     16.37518428	     40.50292594	      7.84496907	      9.05542593	      2.40821949	      0.00000000	     13.40885412	     10.12828756	      7.21272233	      8.17676459	      1.29434473	      0.00000000	     12.22949973	      0.00000000	     20.00893149	      4.10409421	     16.02369625	     11.13301119	      0.00000000	      0.00000000	     11.29777835	      8.46090461	      0.00000000	      4.28029826	      5.80303672	     15.24909955	     11.86143437	     41.88284583	     34.84099007	      0.00000000	      5.84439263	      0.00000000	     28.10346498	      0.00000000	      0.00000000	      0.00000000	      0.00000000	      0.00000000	      8.41196126	     59.60561965	      9.45546153	      7.49189936	      0.00000000	      9.63990419	     21.37086612	      5.17949962	      6.14060810	      1.77872616	     67.98073177	     67.98073177	     26.28488754	     26.28488754	     42.73483124	     42.73483124	    103.34558368	    261.49134290	     28.57051648	    -18.29453142	      2.52906678	     43.22330081	   -103.34558368	   -261.49134290	    -28.57051648	      8.11569600	     -2.95095562	     -2.54297329	     -7.25488033	     60.34868709	     13.08050239	     -4.11535742	      0.00412036	     -2.37859521	      7.25488033	    -60.34868709	    -13.08050239	     -0.71811553	     -0.03801115	     -0.14584936	    -53.21173831	   -630.54041731	    121.67407050	    -13.48960676	     -0.05010070	     -6.08072968	     53.21173831	    630.54041731	   -121.67407050	     61.92888433	      0.40700621	     29.11424457	    -40.72213633	   -357.66985961	    -92.70412411	     12.56613388	     -1.09920742	     -1.28386494	     40.72213633	    357.66985961	     92.70412411	    -47.02631288	      0.59010669	     18.38539207	     31.24004811	     17.40703804	      0.00000000	      0.00000000	      0.00000000	    -16.76887762	    -43.70037104	      0.00000000	      0.00000000	      0.00000000	      0.00000000	      0.00000000	      0.00000000	      0.00000000	      0.00000000	      0.00000000
      0.06500000	      0.00000000	     13.74382642	     11.29662420	      7.15124078	      8.11024045	      2.30929540	      0.00000000	    228.07130674	    324.40034073	    432.73076235	    135.05009512	     15.88142186	     11.03877451	      0.00000000	      0.00000000	     11.25381857	      4.92261621	      0.00000000	    117.92028547	      6.63532969	     15.17664200	     11.76567008	     41.61544866	     34.53714283	      0.00000000	      5.81594167	      0.00000000	     49.21027702	      0.00000000	      0.00000000	      0.00000000	     63.63413451	     39.76723607	     26.81572828	     39.06250285	      4.50912654	      3.73010950	      0.00000000	     15.54584815	     39.03334906	      7.61419850	      9.57660623	      2.58054295	      0.00000000	     13.74382642	     11.29662420	      7.15124078	      8.11024045	      2.30929540	      0.00000000	     12.11785780	      0.00000000	     19.83491954	      4.06921277	     15.88142186	     11.03877451	      0.00000000	      0.00000000	     11.25381857	      8.43246356	      0.00000000	      4.24338897	      6.63532969	     15.17664200	     11.76567008	     41.61544866	     34.53714283	      0.00000000	      5.81594167	      0.00000000	     28.09777761	      0.00000000	      0.00000000	      0.00000000	      0.00000000	      0.00000000	     12.40583423	     59.66433843	      9.67346021	      7.75692816	      0.00000000	      9.72550611	     21.48080345	      5.15075391	      6.15411836	      1.78435603	     67.39955221	     67.39955221	     26.05387680	     26.05387680	     42.51180463	     42.51180463	     98.80922444	    254.34034167	     27.88003456	    -17.83415019	      2.41243084	     41.30993383	    -98.80922444	   -254.34034167	    -27.88003456	      7.89578300	     -2.82010603	     -2.36842535	     -7.46699037	     58.90521361	     13.30715704	     -4.24306296	      0.00633804	     -2.49545107	      7.46699037	    -58.90521361	    -13.30715704	     -0.68194326	     -0.04233054	     -0.10877368	    -59.95732791	   -638.65453910	    120.92949770	    -13.65831543	      0.10629796	     -6.12547896	     59.95732791	    638.65453910	   -120.92949770	     61.82266007	      0.24371824	     31.85406380	    -41.77734461	   -349.07468154	    -90.51689627	     12.26458559	     -1.14155340	     -1.25471369	     41.77734461	    349.07468154	     90.51689627	    -45.91489043	      0.62799421	     18.76626078	     30.51201584	     16.07336842	      0.00000000	      0.00000000	      0.00000000	    -16.42767702	    -43.92741252	      0.00000000	      0.00000000	      0.00000000	      0.00000000	      0.00000000	      0.00000000	      0.00000000	      0.00000000	      0.00000000
